# xmcd CD database file
#
# Track frame offsets:
#	150
#	16877
#	38295
#	58584
#	74919
#	89380
#	106269
#	127633
#	140742
#	156963
#	170576
#	194026
#	225343
#	241075
#	260790
#	270231
#	291431
#
# Disc length: 4157 seconds
#
# Revision: 0
# Processed by: cddbd v1.5.1PL0 Copyright (c) Steve Scherf et al.
# Submitted via: CDex 1.51
#
DISCID=ee103b11
DTITLE=Tom Kubis - Keep Swingin'
DYEAR=1900
DGENRE=Big Band
TTITLE0=Jumpy Blues
TTITLE1=Tango Blues
TTITLE2=Hoagy's Indiana
TTITLE3=Le Jazz Hot
TTITLE4=Oh, That Face
TTITLE5=Sultry Samba
TTITLE6=Cold September Morning
TTITLE7=Jump, John
TTITLE8=In the Winter, In the Summer
TTITLE9=Mama Used to Do the Cha Cha
TTITLE10=Something Mysterious
TTITLE11=You Got to Have the Blues Sometimes
TTITLE12=Keep Swingin'
TTITLE13=Happy Tuesday
TTITLE14=Chittlins
TTITLE15=Payin' Your Dues
TTITLE16=Livin' in L.A.
EXTD=
EXTT0=
EXTT1=
EXTT2=
EXTT3=
EXTT4=
EXTT5=
EXTT6=
EXTT7=
EXTT8=
EXTT9=
EXTT10=
EXTT11=
EXTT12=
EXTT13=
EXTT14=
EXTT15=
EXTT16=
PLAYORDER=
